<?xml version="1.0" encoding="UTF-8"?><svg id="uuid-4a0cce5c-2c20-4aee-ac14-484cae1ff951" xmlns="http://www.w3.org/2000/svg" viewBox="0 0 896.58 896.58"><g id="uuid-3b096a18-e020-489b-87cd-5d2ed44cb057"><g><circle cx="448.29" cy="448.29" r="445.29" style="fill:none; stroke:#d3d3d3; stroke-miterlimit:10; stroke-width:6px;"/><path d="M675.85,315.56v-42.69c0-2.9-2.35-5.25-5.25-5.25h-143.97c.06,.09,.12,.19,.17,.29-.39-.17-.8-.29-1.24-.29h-22.2c-4.58,0-8.29,3.71-8.29,8.29v34.71c0,2.9,2.36,5.26,5.26,5.25l29.63-.05c2.9,0,5.26,2.35,5.26,5.25v124.03c0,19.41-.8,35.26-2.38,47.53-1.59,12.28-4.16,21.89-7.72,28.82-3.57,6.93-8.12,11.69-13.67,14.26-5.12,2.38-11.08,3.65-17.87,3.84-1.07,.03-2.1-.53-2.68-1.43-8.3-13.01-15.22-26.49-20.75-40.43-5.75-14.46-10.4-30.4-13.97-47.84-3.56-17.43-6.04-37.03-7.43-58.82-1.2-18.71-1.87-39.78-2.03-63.18-.03-3.84-.04-7.72-.04-11.69v-40.25c0-4.58-3.71-8.29-8.29-8.29h-164.85c-4.58,0-8.29,3.71-8.29,8.29v34.71c0,2.9,2.36,5.26,5.26,5.25l34.29-.06c2.89,0,5.24,2.33,5.26,5.23,.02,2.29,.04,4.56,.07,6.81,.27,21.08,1.01,40.1,2.25,56.95,1.58,21.6,4.06,41.1,7.43,58.53,3.36,17.43,7.92,33.57,13.67,48.42,5.19,13.44,11.44,26.96,18.74,40.55,1.07,1.98-.29,4.61-2.54,4.48-46.23-2.84-183.95,14.34-183.95,14.34,0,0,37.78,75.13,37.66,111.41,0,1.87,1.66,3.27,3.5,2.96,30.94-5.19,98.39-13.31,107.9-13.93,66.57-4.3,164.1,1.2,168,1.5,.09,0,.17,0,.25,0,31.74-.01,65.52-4.54,88.64-10.46,.53-.14,1-.42,1.38-.8,.04-.01,.08-.02,.12-.04,23.33-7.14,42.32-20.09,57.07-38.68-.1,.41-.19,.83-.3,1.24,1.03-1.27,2.1-2.5,3.09-3.83,15.05-20.2,25.94-47.93,32.68-83.19,6.73-35.25,10.1-80.41,10.1-135.48v-65.96h-.45v-.32h.45Z" style="fill:#d3d3d3;"/></g></g></svg>