<?xml version="1.0" encoding="UTF-8"?><svg id="uuid-523ef92b-5dee-4e6e-99db-5db7adea6968" xmlns="http://www.w3.org/2000/svg" viewBox="0 0 896.58 896.58"><g id="uuid-e3f03b0b-d404-4da0-b300-f1e44ed8fd47"><g><circle cx="448.29" cy="448.29" r="445.29" style="fill:none; stroke:#d3d3d3; stroke-miterlimit:10; stroke-width:6px;"/><path d="M637.83,426.76c-57.31,6-142.29,33.97-189.82,54.42-3.3,1.42-6.49,2.92-9.73,4.39-.07-.02-.14-.05-.21-.07-13.82-4.89-26.5-11.23-38.02-19.01-11.53-7.78-20.89-16.85-28.08-27.22-7.21-10.37-10.8-21.31-10.8-32.84,0-14.39,3.89-26.92,11.66-37.59,7.78-10.65,19.01-18.86,33.7-24.63,14.69-5.75,32.11-8.64,52.28-8.64,9.79,0,21.02,.86,33.7,2.59,12.66,1.73,25.06,4.04,37.16,6.91l19.01-114.93c-16.71-4.6-32.98-8.06-48.82-10.37-15.85-2.3-32.98-3.46-51.42-3.46-37.45,0-72.02,7.21-103.69,21.6-31.69,14.41-57.03,34.86-76.04,61.35-19.01,26.5-28.52,57.89-28.52,94.19,0,28.81,5.04,54.3,15.12,76.47,10.07,22.18,23.61,40.76,40.61,55.73,11.31,9.98,23.35,18.38,36.08,25.29-4.12,3.78-6.64,6.25-7.13,6.69-22.88,20.21-44.22,45.6-60.28,69.72,0,0,8.5,14.46,37.66,46.88,29.72,31.99,46.44,43.99,46.44,43.99,1.32-3.03,4.48-9.41,5.99-12.4,11.8-23.33,29.81-45.07,54-65.24,24.19-20.16,54.92-37.6,92.03-52.71,41.04-16.71,124.95-41.73,175.65-50.96l-38.54-110.18Z" style="fill:#d3d3d3;"/></g></g></svg>